<svg aria-hidden="true" focusable="false" data-prefix="fad" data-icon="quote-right" role="img" xmlns="http://www.w3.org/2000/svg" viewBox="0 0 512 512" class="svg-inline--fa fa-quote-right fa-w-16 fa-5x"><g class="fa-group"><path fill="floralwhite" d="M176 32H48A48 48 0 0 0 0 80v128a48 48 0 0 0 48 48h80v64a64.06 64.06 0 0 1-64 64h-8a23.94 23.94 0 0 0-24 23.88V456a23.94 23.94 0 0 0 23.88 24H64a160 160 0 0 0 160-160V80a48 48 0 0 0-48-48z" class="fa-secondary"></path><path fill="white" d="M464 32H336a48 48 0 0 0-48 48v128a48 48 0 0 0 48 48h80v64a64.06 64.06 0 0 1-64 64h-8a23.94 23.94 0 0 0-24 23.88V456a23.94 23.94 0 0 0 23.88 24H352a160 160 0 0 0 160-160V80a48 48 0 0 0-48-48z" class="fa-primary"></path></g></svg>